<svg width="120" height="120" viewBox="0 0 120 120" fill="none" xmlns="http://www.w3.org/2000/svg">
<path d="M84.4301 54.2469C75.581 54.1083 66.7316 54.5107 57.9316 55.4518C56.1795 55.6495 54.5352 56.3978 53.2352 57.5891C51.9353 58.7803 51.0466 60.3532 50.697 62.0814C49.8229 68.473 49.4135 74.9195 49.4721 81.3703C49.4069 87.8206 49.8096 94.2672 50.677 100.659C50.8302 102.471 51.6594 104.158 52.9997 105.387C54.3401 106.615 56.0936 107.294 57.9116 107.289C61.5264 107.894 66.9511 107.894 74.7907 108.494C75.9103 108.435 77.0293 108.62 78.0704 109.036C79.1115 109.452 80.0498 110.089 80.8203 110.904L89.2548 118.743C89.814 119.304 90.5186 119.698 91.2893 119.881C92.0601 120.064 92.8665 120.028 93.618 119.777C94.3695 119.527 95.0363 119.072 95.5435 118.464C96.0508 117.855 96.3783 117.118 96.4894 116.333L97.6944 110.909C97.7823 110.195 98.1448 109.545 98.705 109.095C99.2652 108.645 99.9788 108.431 100.694 108.499C105.514 108.499 109.134 107.894 111.544 107.894C113.3 107.697 114.949 106.947 116.251 105.751C117.553 104.556 118.442 102.978 118.788 101.244C119.656 94.8521 120.058 88.4056 119.993 81.9553C120.058 75.505 119.656 69.0584 118.788 62.6664C118.635 60.8548 117.806 59.1672 116.465 57.9389C115.125 56.7106 113.372 56.0316 111.554 56.0368C102.594 54.5406 93.5083 53.941 84.4301 54.2469Z" fill="white" fill-opacity="0.05"/>
<path d="M51.8621 0C32.3632 0 20.1339 0.604965 12.8143 1.20493C9.85963 1.49083 7.09368 2.78588 4.98197 4.8721C2.87025 6.95832 1.5417 9.70833 1.21993 12.6593C0.609965 19.2889 0 28.9334 0 42.1926C0 55.4518 0.609965 65.0963 1.21993 71.7259C1.5417 74.6769 2.87025 77.4269 4.98197 79.5131C7.09368 81.5993 9.85963 82.8944 12.8143 83.1803C16.8493 83.7476 20.9274 83.9484 24.9986 83.7802C25.6684 83.8935 26.2989 84.1736 26.8319 84.5948C27.365 85.016 27.7833 85.5646 28.0484 86.1901L28.6584 92.8197C28.8261 94.2263 29.3916 95.5558 30.2886 96.6521C31.1855 97.7485 32.3766 98.5662 33.7221 99.0093C35.0675 99.4523 36.5114 99.5023 37.8843 99.1534C39.2572 98.8045 40.502 98.0712 41.4726 97.0395L51.8471 86.7951C52.7501 85.969 53.8083 85.3306 54.9601 84.9169C56.1119 84.5032 57.3344 84.3225 58.5567 84.3852C74.4208 84.3852 84.7902 83.7802 90.8948 83.1803C93.8504 82.8954 96.6175 81.6009 98.7302 79.5146C100.843 77.4283 102.172 74.6776 102.494 71.7259C103.104 65.0963 103.714 55.4518 103.714 42.1926C103.714 28.9334 103.104 19.2889 102.494 12.6593C102.172 9.70833 100.844 6.95832 98.7321 4.8721C96.6204 2.78588 93.8545 1.49083 90.8998 1.20493C83.5853 0.604965 71.3809 0 51.8621 0Z" fill="white" fill-opacity="0.05"/>
</svg>
