<svg width="120" height="120" viewBox="0 0 120 120" fill="none" xmlns="http://www.w3.org/2000/svg">
<path fill-rule="evenodd" clip-rule="evenodd" d="M104.51 43.2526C106.816 55.9261 104.399 69.0054 97.7175 80.0181L99.4575 81.4483C105.458 86.4039 111.303 91.2694 117.078 96.8751C117.929 97.6152 118.624 98.5174 119.123 99.529C119.622 100.541 119.915 101.641 119.984 102.767C120.053 103.893 119.898 105.021 119.527 106.087C119.156 107.152 118.576 108.132 117.823 108.971C116.663 110.257 115.243 111.757 113.503 113.502C111.763 115.247 110.258 116.667 108.973 117.822C108.134 118.576 107.153 119.156 106.088 119.527C105.023 119.898 103.895 120.053 102.769 119.984C101.643 119.915 100.543 119.622 99.5312 119.123C98.5197 118.624 97.6176 117.928 96.8775 117.077C91.2775 111.297 86.4124 105.431 81.4624 99.4553L80.0224 97.7202C69.0128 104.406 55.9354 106.826 43.2626 104.523C30.5898 102.22 19.1997 95.3539 11.2455 85.2221C3.29131 75.0902 -0.675743 62.3949 0.0942842 49.5363C0.864311 36.6777 6.31806 24.5467 15.4245 15.4367C24.531 6.32668 36.6591 0.868928 49.5162 0.0951866C62.3732 -0.678555 75.0683 3.28533 85.2013 11.2375C95.3344 19.1897 102.203 30.579 104.51 43.2526ZM74.9774 52.4706C74.9774 64.8984 64.9037 74.9731 52.4772 74.9731C40.0507 74.9731 29.9771 64.8984 29.9771 52.4706C29.9771 40.0428 40.0507 29.968 52.4772 29.968C64.9037 29.968 74.9774 40.0428 74.9774 52.4706Z" fill="white" fill-opacity="0.05"/>
</svg>
