<svg width="120" height="120" viewBox="0 0 120 120" fill="none" xmlns="http://www.w3.org/2000/svg">
<path d="M52.1266 4.87504C52.8585 3.4102 53.9838 2.17821 55.3763 1.31715C56.7688 0.45609 58.3736 0 60.0107 0C61.6478 0 63.2526 0.45609 64.6451 1.31715C66.0376 2.17821 67.1629 3.4102 67.8948 4.87504L82.506 32.9447L112.658 38.8509C114.267 39.2158 115.752 39.9966 116.964 41.1152C118.177 42.2337 119.075 43.651 119.568 45.2254C120.062 46.7997 120.134 48.476 119.777 50.0869C119.42 51.6978 118.647 53.1868 117.534 54.4052L96.4574 77.7601L100.404 109.559C100.658 111.179 100.467 112.839 99.8502 114.359C99.2336 115.879 98.2151 117.203 96.9038 118.188C95.5925 119.173 94.0379 119.783 92.4066 119.952C90.7752 120.121 89.1287 119.842 87.6435 119.147L60.0064 105.431L32.3736 119.147C30.8871 119.843 29.2392 120.121 27.6067 119.951C25.9743 119.781 24.4189 119.169 23.1076 118.182C21.7964 117.194 20.7787 115.868 20.1638 114.346C19.549 112.824 19.3602 111.163 19.6177 109.541L23.5854 77.7515L2.46556 54.4052C1.35331 53.1868 0.580139 51.6978 0.223272 50.0869C-0.133595 48.476 -0.0616632 46.7997 0.431883 45.2254C0.925428 43.651 1.82331 42.2337 3.03584 41.1152C4.24836 39.9966 5.73308 39.2158 7.34168 38.8509L37.494 32.9447L52.1266 4.87504Z" fill="white" fill-opacity="0.05"/>
</svg>
